# xmcd
#
# Track frame offsets:
#	150
#	7704
#	14304
#	20912
#	22682
#	24528
#
# Disc length: 348 seconds
#
# Revision: 0
# Processed by: cddbd v1.5.2PL0 Copyright (c) Steve Scherf et al.
# Submitted via: EasyCDDAExtractor 16.0.6.1
#
DISCID=31015a06
DTITLE=Άνευ ερμηνευτού - Πυρίχιος Αθήνα 2004
DYEAR=2004
DGENRE=Παραδοσιακή
TTITLE0=Άνευ ερμηνευτού - Πυρίχιος [πλήρες]
TTITLE1=Άνευ ερμηνευτού - Πυρίχιος [απόσπασμα]
TTITLE2=Άνευ ερμηνευτού - Πυρίχιος [συμπ. ως ήχος φορητού]
TTITLE3=Άγνωστος - Έχω δύο προβάτα [ψηφιοπ.  φάκελλοι]
TTITLE4=Άγνωστος - Ποντιακό 2 [ψηφιοπ.  φάκελλοι]
TTITLE5=Άνευ ερμηνευτού - Παρχάρ [απόσπ. ως ήχος φορητού]
EXTD=
EXTT0=
EXTT1=
EXTT2=
EXTT3=
EXTT4=
EXTT5=
PLAYORDER=
